<svg height="512pt" viewBox="-14 0 512 512.00339" width="512pt" xmlns="http://www.w3.org/2000/svg"><path d="m409.601562 512.003906h-363.054687c-15.398437 0-27.925781-12.53125-27.925781-27.929687 0-15.394531 12.527344-27.925781 27.925781-27.925781h363.054687c15.398438 0 27.925782 12.53125 27.925782 27.925781 0 15.398437-12.527344 27.929687-27.925782 27.929687zm-363.054687-37.238281c-5.136719 0-9.308594 4.171875-9.308594 9.308594 0 5.140625 4.171875 9.3125 9.308594 9.3125h363.054687c5.140626 0 9.308594-4.171875 9.308594-9.3125 0-5.136719-4.167968-9.308594-9.308594-9.308594zm0 0"/><path d="m297.894531 474.765625h-204.800781c-5.140625 0-9.308594-4.160156-9.308594-9.308594v-121.015625c0-5.148437 4.167969-9.3125 9.308594-9.3125h214.109375c2.597656 0 5.0625 1.082032 6.832031 2.980469 1.757813 1.910156 2.652344 4.460937 2.449219 7.046875l-9.3125 121.019531c-.371094 4.847657-4.421875 8.589844-9.277344 8.589844zm-195.492187-18.617187h186.871094l7.875-102.398438h-194.746094zm0 0"/><path d="m307.203125 353.75h-214.109375c-68.710938 0-93.09375-80.234375-93.09375-148.945312 0-5.148438 4.171875-9.308594 9.3125-9.308594h465.453125c5.136719 0 9.308594 4.160156 9.308594 9.308594 0 90.910156-104.753907 148.945312-176.871094 148.945312zm-288.445313-139.636719c2.207032 73.847657 30.890626 121.015625 74.335938 121.015625h214.109375c60.46875 0 150.65625-47.894531 157.796875-121.015625zm0 0"/><path d="m121.019531 214.113281h-93.089843c-5.140626 0-9.308594-4.160156-9.308594-9.308593v-27.929688c0-10.265625 8.347656-18.617188 18.617187-18.617188h74.472657c10.269531 0 18.617187 8.351563 18.617187 18.617188v27.929688c0 5.148437-4.167969 9.308593-9.308594 9.308593zm-83.78125-18.617187h74.472657v-18.621094h-74.472657zm0 0"/><path d="m93.09375 176.875h-37.238281c-5.136719 0-9.308594-4.160156-9.308594-9.308594v-81.15625c0-45.417968 34.285156-83.289062 78.058594-86.21875 23.429687-1.546875 45.78125 6.394532 62.910156 22.40625 16.90625 15.804688 26.59375 38.101563 26.59375 61.1875v18.617188c0 15.398437-12.527344 27.929687-27.925781 27.929687-15.398438 0-27.925782-12.53125-27.925782-27.929687v-18.617188c0-7.847656-3.351562-15.378906-9.191406-20.683594-5.910156-5.363281-13.542968-7.875-21.558594-7.113281-14.074218 1.386719-25.105468 14.328125-25.105468 29.464844v82.113281c0 5.148438-4.171875 9.308594-9.308594 9.308594zm-27.929688-18.617188h18.621094v-72.804687c0-24.613281 18.410156-45.679687 41.917969-47.980469 13.070313-1.257812 26.167969 3.035156 35.875 11.839844 9.71875 8.816406 15.296875 21.382812 15.296875 34.472656v18.617188c0 5.140625 4.167969 9.308594 9.308594 9.308594 5.136718 0 9.308594-4.167969 9.308594-9.308594v-18.617188c0-17.949218-7.539063-35.289062-20.695313-47.589844-13.320313-12.453124-30.726563-18.664062-48.945313-17.414062-34.035156 2.269531-60.6875 31.976562-60.6875 67.628906zm60.0625-148.777343h.09375zm0 0"/><path d="m344.4375 279.277344h-327.464844c-5.140625 0-9.308594-4.164063-9.308594-9.308594 0-5.148438 4.167969-9.3125 9.308594-9.3125h327.464844c5.140625 0 9.308594 4.164062 9.308594 9.3125 0 5.144531-4.167969 9.308594-9.308594 9.308594zm0 0"/><path d="m453.167969 279.277344h-43.566407c-5.136718 0-9.308593-4.164063-9.308593-9.308594 0-5.148438 4.171875-9.3125 9.308593-9.3125h43.566407c5.140625 0 9.308593 4.164062 9.308593 9.3125 0 5.144531-4.167968 9.308594-9.308593 9.308594zm0 0"/></svg>