<svg clip-rule="evenodd" fill-rule="evenodd" height="512" stroke-linejoin="round" stroke-miterlimit="2" viewBox="0 0 48 48" width="512" xmlns="http://www.w3.org/2000/svg"><path d="m8 14h-2c-1.105 0-2 .895-2 2v18c0 1.105.895 2 2 2h32c1.105 0 2-.895 2-2v-2h2c.53 0 1.039-.211 1.414-.586s.586-.884.586-1.414c0-3.414 0-14.586 0-18 0-1.105-.895-2-2-2h-32c-1.105 0-2 .895-2 2zm30 15.5c-2.208 0-4 1.792-4 4 0 .169.011.336.031.5h3.969zm-26-13.5c0 3.311-2.689 6-6 6v5c3.311 0 6 2.689 6 6 0 .341-.028.675-.083 1h20.104c-.014-.165-.021-.332-.021-.5 0-3.311 2.689-6 6-6v-5.5c-3.311 0-6-2.689-6-6zm-6 13v5h3.874c.082-.32.126-.655.126-1 0-2.208-1.792-4-4-4zm15-8.9c-.45.125-.864.365-1.2.7-.512.513-.8 1.208-.8 1.933v.534c0 .725.288 1.42.8 1.933.513.512 1.208.8 1.933.8h.534c.195 0 .381.077.518.215.138.137.215.323.215.518v.534c0 .195-.077.381-.215.518-.137.138-.323.215-.517.215-.001 0-3.268 0-3.268 0v2h2v2h2v-2.1c.45-.125.864-.365 1.2-.7.512-.513.8-1.208.8-1.933 0-.177 0-.357 0-.534 0-.725-.288-1.42-.8-1.933-.513-.512-1.208-.8-1.933-.8h-.534c-.195 0-.381-.077-.518-.215-.138-.137-.215-.323-.215-.518v-.534c0-.195.077-.381.215-.518.137-.138.323-.215.517-.215h3.268v-2h-2v-2h-2zm-11-6.1h28c1.105 0 2 .895 2 2v14h2v-18h-32zm24 2c0 2.208 1.792 4 4 4v-4zm-28 4c2.208 0 4-1.792 4-4h-4z"/></svg>